<svg preserveAspectRatio="none" width="100%" height="100%" overflow="visible" style="display: block;" viewBox="0 0 16 16" fill="none" xmlns="http://www.w3.org/2000/svg">
<g id="svg">
<path id="Vector" d="M8 1C6.77497 1.00164 5.57183 1.32474 4.51078 1.93702C3.44974 2.54929 2.56795 3.42929 1.95353 4.48909C1.3391 5.54889 1.01356 6.75138 1.00944 7.9764C1.00531 9.20143 1.32273 10.4061 1.93 11.47L1 15L4.63 14.07C5.56477 14.6066 6.61081 14.92 7.68661 14.986C8.76241 15.0519 9.83891 14.8685 10.8322 14.4501C11.8255 14.0317 12.7087 13.3895 13.4131 12.5737C14.1175 11.7579 14.624 10.7905 14.8931 9.74679C15.1622 8.70311 15.1867 7.61138 14.9646 6.55669C14.7425 5.502 14.2798 4.51284 13.6127 3.66631C12.9456 2.81977 12.092 2.13872 11.1184 1.67623C10.1449 1.21375 9.07767 0.982327 8 1ZM8 13.5C7.01454 13.4988 6.0475 13.2329 5.2 12.73L5 12.61L2.9 13.15L3.46 11.11L3.33 10.9C2.68759 9.86476 2.4071 8.64551 2.53257 7.43363C2.65803 6.22174 3.18234 5.08581 4.02321 4.20413C4.86407 3.32245 5.97389 2.74493 7.17848 2.56221C8.38307 2.37948 9.61423 2.60191 10.6787 3.19456C11.7432 3.78722 12.5808 4.71657 13.06 5.83673C13.5392 6.9569 13.6329 8.20448 13.3264 9.38366C13.0199 10.5628 12.3306 11.6069 11.3665 12.3519C10.4025 13.0969 9.21837 13.5007 8 13.5ZM11.01 9.4C10.84 9.32 10.03 8.92 9.88 8.86C9.73 8.8 9.62 8.78 9.51 8.94C9.4 9.11 9.08 9.48 8.99 9.59C8.89 9.7 8.8 9.71 8.63 9.63C8.46 9.55 7.91 9.36 7.26 8.78C6.75 8.33 6.41 7.77 6.31 7.6C6.21 7.43 6.3 7.34 6.38 7.26C6.46 7.18 6.55 7.06 6.64 6.96C6.73 6.86 6.76 6.79 6.82 6.67C6.88 6.55 6.85 6.45 6.81 6.37C6.77 6.29 6.44 5.49 6.31 5.17C6.17 4.85 6.03 4.9 5.94 4.89H5.63C5.53 4.89 5.36 4.93 5.21 5.09C5.06 5.25 4.66 5.63 4.66 6.39C4.66 7.15 5.22 7.9 5.3 8.01C5.38 8.11 6.4 9.69 7.97 10.36C8.34 10.52 8.63 10.62 8.86 10.69C9.23 10.81 9.57 10.79 9.84 10.75C10.14 10.71 10.82 10.35 10.96 9.96C11.1 9.58 11.1 9.25 11.06 9.17C11.02 9.09 10.91 9.05 10.74 8.97L11.01 9.4Z" fill="var(--fill-0, black)"/>
</g>
</svg>
