<svg preserveAspectRatio="none" width="100%" height="100%" overflow="visible" style="display: block;" viewBox="0 0 16 16" fill="none" xmlns="http://www.w3.org/2000/svg">
<g id="Frame">
<path id="Vector" d="M10.5 2H5.5C3.567 2 2 3.567 2 5.5V10.5C2 12.433 3.567 14 5.5 14H10.5C12.433 14 14 12.433 14 10.5V5.5C14 3.567 12.433 2 10.5 2Z" stroke="var(--stroke-0, #6C7668)" stroke-width="1.4" stroke-linecap="round"/>
<path id="Vector_2" d="M8 11C9.65685 11 11 9.65685 11 8C11 6.34315 9.65685 5 8 5C6.34315 5 5 6.34315 5 8C5 9.65685 6.34315 11 8 11Z" stroke="var(--stroke-0, #6C7668)" stroke-width="1.4" stroke-linecap="round"/>
<path id="Vector_3" d="M11.5 5C11.7761 5 12 4.77614 12 4.5C12 4.22386 11.7761 4 11.5 4C11.2239 4 11 4.22386 11 4.5C11 4.77614 11.2239 5 11.5 5Z" fill="var(--fill-0, #6C7668)"/>
</g>
</svg>
