<svg preserveAspectRatio="none" width="100%" height="100%" overflow="visible" style="display: block;" viewBox="0 0 15 16" fill="none" xmlns="http://www.w3.org/2000/svg">
<g id="Frame" clip-path="url(#clip0_176_9383)">
<path id="Vector" d="M10.5 0H8.5V10.5C8.5 10.8956 8.3827 11.2822 8.16294 11.6111C7.94318 11.94 7.63082 12.1964 7.26537 12.3478C6.89991 12.4991 6.49778 12.5387 6.10982 12.4616C5.72186 12.3844 5.36549 12.1939 5.08579 11.9142C4.80608 11.6345 4.6156 11.2781 4.53843 10.8902C4.46126 10.5022 4.50087 10.1001 4.65224 9.73463C4.80362 9.36918 5.05996 9.05682 5.38886 8.83706C5.71776 8.6173 6.10444 8.5 6.5 8.5V6.4C5.60998 6.4 4.73996 6.66392 3.99993 7.15839C3.25991 7.65285 2.68314 8.35566 2.34254 9.17792C2.00195 10.0002 1.91283 10.905 2.08647 11.7779C2.2601 12.6508 2.68868 13.4526 3.31802 14.082C3.94736 14.7113 4.74918 15.1399 5.62209 15.3135C6.49501 15.4872 7.39981 15.3981 8.22208 15.0575C9.04434 14.7169 9.74715 14.1401 10.2416 13.4001C10.7361 12.66 11 11.79 11 10.9V5.25C12.1497 6.11459 13.5625 6.55609 15 6.5V4.25C14.4212 4.28411 13.8416 4.19943 13.2967 4.00117C12.7519 3.80291 12.2534 3.49527 11.8318 3.09717C11.4103 2.69907 11.0747 2.21893 10.8457 1.68629C10.6166 1.15366 10.499 0.579793 10.5 0Z" fill="var(--fill-0, #6C7668)"/>
</g>
<defs>
<clipPath id="clip0_176_9383">
<rect width="15" height="16" fill="white"/>
</clipPath>
</defs>
</svg>
