<svg preserveAspectRatio="none" width="100%" height="100%" overflow="visible" style="display: block;" viewBox="0 0 14 14" fill="none" xmlns="http://www.w3.org/2000/svg">
<g id="Frame">
<path id="Vector" d="M12.1567 2.68917C11.8587 2.39109 11.505 2.15463 11.1156 1.9933C10.7263 1.83197 10.309 1.74894 9.8875 1.74894C9.46605 1.74894 9.04873 1.83197 8.65938 1.9933C8.27003 2.15463 7.91627 2.39109 7.61833 2.68917L7 3.3075L6.38167 2.68917C5.77985 2.08735 4.9636 1.74925 4.1125 1.74925C3.2614 1.74925 2.44515 2.08735 1.84333 2.68917C1.24151 3.29099 0.903414 4.10723 0.903414 4.95833C0.903414 5.80944 1.24151 6.62568 1.84333 7.2275L2.46167 7.84583L7 12.3842L11.5383 7.84583L12.1567 7.2275C12.4547 6.92956 12.6912 6.57581 12.8525 6.18646C13.0139 5.79711 13.0969 5.37978 13.0969 4.95833C13.0969 4.53688 13.0139 4.11956 12.8525 3.73021C12.6912 3.34086 12.4547 2.98711 12.1567 2.68917Z" stroke="var(--stroke-0, #A6B0A3)" stroke-width="1.16667" stroke-linecap="round" stroke-linejoin="round"/>
</g>
</svg>
