<svg preserveAspectRatio="none" width="100%" height="100%" overflow="visible" style="display: block;" viewBox="0 0 18 18" fill="none" xmlns="http://www.w3.org/2000/svg">
<g id="svg">
<path id="Vector" d="M4.5 6.75H3C2.60218 6.75 2.22064 6.59196 1.93934 6.31066C1.65804 6.02936 1.5 5.64782 1.5 5.25V3.75H4.5" stroke="var(--stroke-0, black)" stroke-width="1.125" stroke-linecap="round" stroke-linejoin="round"/>
<path id="Vector_2" d="M13.5 6.75H15C15.3978 6.75 15.7794 6.59196 16.0607 6.31066C16.342 6.02936 16.5 5.64782 16.5 5.25V3.75H13.5" stroke="var(--stroke-0, black)" stroke-width="1.125" stroke-linecap="round" stroke-linejoin="round"/>
<path id="Vector_3" d="M4.5 6.75C4.5 7.94347 4.97411 9.08807 5.81802 9.93198C6.66193 10.7759 7.80653 11.25 9 11.25C10.1935 11.25 11.3381 10.7759 12.182 9.93198C13.0259 9.08807 13.5 7.94347 13.5 6.75" stroke="var(--stroke-0, black)" stroke-width="1.125" stroke-linecap="round" stroke-linejoin="round"/>
<path id="Vector_4" d="M9 11.25V13.5" stroke="var(--stroke-0, black)" stroke-width="1.125" stroke-linecap="round" stroke-linejoin="round"/>
<path id="Vector_5" d="M6 15.75H12" stroke="var(--stroke-0, black)" stroke-width="1.125" stroke-linecap="round" stroke-linejoin="round"/>
</g>
</svg>
