<svg preserveAspectRatio="none" width="100%" height="100%" overflow="visible" style="display: block;" viewBox="0 0 8 8" fill="none" xmlns="http://www.w3.org/2000/svg">
<g id="svg" clip-path="url(#clip0_147_3076)">
<path id="Vector" d="M7 4.26333C6.94756 4.83073 6.73462 5.37147 6.38608 5.82226C6.03754 6.27306 5.56783 6.61527 5.0319 6.80885C4.49597 7.00243 3.91599 7.03937 3.35983 6.91536C2.80367 6.79135 2.29433 6.51151 1.89141 6.10859C1.48849 5.70567 1.20865 5.19633 1.08464 4.64017C0.960625 4.08401 0.997572 3.50403 1.19115 2.9681C1.38473 2.43217 1.72694 1.96246 2.17774 1.61392C2.62853 1.26538 3.16927 1.05244 3.73667 1C3.40447 1.44942 3.24462 2.00315 3.28618 2.56047C3.32774 3.11779 3.56795 3.64169 3.96313 4.03687C4.35831 4.43205 4.88221 4.67226 5.43953 4.71382C5.99685 4.75538 6.55058 4.59553 7 4.26333Z" stroke="var(--stroke-0, black)" stroke-width="1.35" stroke-linecap="round" stroke-linejoin="round"/>
</g>
<defs>
<clipPath id="clip0_147_3076">
<rect width="8" height="8" fill="white"/>
</clipPath>
</defs>
</svg>
