<svg preserveAspectRatio="none" width="100%" height="100%" overflow="visible" style="display: block;" viewBox="0 0 16 16" fill="none" xmlns="http://www.w3.org/2000/svg">
<g id="svg">
<path id="Vector" d="M3.5 5.5H2.5V12.5H3.5V5.5ZM3 4.5C2.80109 4.5 2.61032 4.42098 2.46967 4.28033C2.32902 4.13968 2.25 3.94891 2.25 3.75C2.25 3.55109 2.32902 3.36032 2.46967 3.21967C2.61032 3.07902 2.80109 3 3 3C3.19891 3 3.38968 3.07902 3.53033 3.21967C3.67098 3.36032 3.75 3.55109 3.75 3.75C3.75 3.94891 3.67098 4.13968 3.53033 4.28033C3.38968 4.42098 3.19891 4.5 3 4.5ZM5.5 5.5H6.5V6.5C7 5.7 7.9 5.4 8.7 5.4C10.7 5.4 11.5 6.5 11.5 8.5V12H10.5V8.8C10.5 7.3 10.1 6.4 8.8 6.4C7.4 6.4 6.5 7.3 6.5 9V12.5H5.5V5.5Z" fill="var(--fill-0, black)"/>
</g>
</svg>
